<svg width="119" height="38" viewBox="0 0 119 38" fill="none" xmlns="http://www.w3.org/2000/svg">
<g filter="url(#filter0_d_0_227)">
<rect x="2" y="1" width="115" height="34" rx="6" fill="white"/>
<path d="M30.1024 14.7072L36.5 17.9056L42.8976 14.7072C42.8739 14.2996 42.6953 13.9164 42.3983 13.6362C42.1012 13.356 41.7083 13.1999 41.3 13.2H31.7C31.2917 13.1999 30.8988 13.356 30.6017 13.6362C30.3047 13.9164 30.1261 14.2996 30.1024 14.7072Z" fill="#1E1F26"/>
<path d="M42.9 16.4944L36.5 19.6944L30.1 16.4944V21.2C30.1 21.6244 30.2686 22.0313 30.5686 22.3314C30.8687 22.6314 31.2757 22.8 31.7 22.8H41.3C41.7244 22.8 42.1313 22.6314 42.4314 22.3314C42.7314 22.0313 42.9 21.6244 42.9 21.2V16.4944Z" fill="#1E1F26"/>
<path d="M53.6186 23H60.0618V21.6776H55.1548V18.5604H59.669V17.2429H55.1548V14.1406H60.0021V12.8182H53.6186V23ZM61.9348 23H63.4213V18.2919C63.4213 17.2628 64.1422 16.5469 64.9874 16.5469C65.8127 16.5469 66.3844 17.0938 66.3844 17.924V23H67.8659V18.1328C67.8659 17.2131 68.4277 16.5469 69.3972 16.5469C70.1827 16.5469 70.829 16.9844 70.829 18.0185V23H72.3155V17.8793C72.3155 16.1342 71.3411 15.2642 69.959 15.2642C68.8603 15.2642 68.035 15.7912 67.6671 16.6065H67.5875C67.2544 15.7713 66.5534 15.2642 65.5343 15.2642C64.525 15.2642 63.7743 15.7663 63.4561 16.6065H63.3617V15.3636H61.9348V23ZM76.5302 23.169C77.793 23.169 78.5039 22.5277 78.7873 21.956H78.8469V23H80.2987V17.929C80.2987 15.7067 78.5487 15.2642 77.3356 15.2642C75.9535 15.2642 74.6808 15.821 74.1836 17.2131L75.5806 17.5312C75.7994 16.9893 76.3562 16.4673 77.3555 16.4673C78.315 16.4673 78.8072 16.9695 78.8072 17.8345V17.8693C78.8072 18.4112 78.2504 18.4013 76.8782 18.5604C75.4315 18.7294 73.9499 19.1072 73.9499 20.8423C73.9499 22.3438 75.0785 23.169 76.5302 23.169ZM76.8533 21.9759C76.0131 21.9759 75.4066 21.598 75.4066 20.8622C75.4066 20.0668 76.1126 19.7834 76.9727 19.669C77.4549 19.6044 78.5984 19.4751 78.8121 19.2614V20.2457C78.8121 21.1506 78.0913 21.9759 76.8533 21.9759ZM82.2786 23H83.7651V15.3636H82.2786V23ZM83.0293 14.1854C83.5414 14.1854 83.9689 13.7876 83.9689 13.3004C83.9689 12.8132 83.5414 12.4105 83.0293 12.4105C82.5123 12.4105 82.0897 12.8132 82.0897 13.3004C82.0897 13.7876 82.5123 14.1854 83.0293 14.1854ZM87.2514 12.8182H85.7649V23H87.2514V12.8182Z" fill="#374151"/>
<rect x="2.5" y="1.5" width="114" height="33" rx="5.5" stroke="#D1D5DB"/>
</g>
<defs>
<filter id="filter0_d_0_227" x="0" y="0" width="119" height="38" filterUnits="userSpaceOnUse" color-interpolation-filters="sRGB">
<feFlood flood-opacity="0" result="BackgroundImageFix"/>
<feColorMatrix in="SourceAlpha" type="matrix" values="0 0 0 0 0 0 0 0 0 0 0 0 0 0 0 0 0 0 127 0" result="hardAlpha"/>
<feOffset dy="1"/>
<feGaussianBlur stdDeviation="1"/>
<feColorMatrix type="matrix" values="0 0 0 0 0 0 0 0 0 0 0 0 0 0 0 0 0 0 0.05 0"/>
<feBlend mode="normal" in2="BackgroundImageFix" result="effect1_dropShadow_0_227"/>
<feBlend mode="normal" in="SourceGraphic" in2="effect1_dropShadow_0_227" result="shape"/>
</filter>
</defs>
</svg>
