<svg width="119" height="38" viewBox="0 0 119 38" fill="none" xmlns="http://www.w3.org/2000/svg">
<g filter="url(#filter0_d_0_233)">
<rect x="2" y="1" width="115" height="34" rx="6" fill="#5093E2"/>
<path d="M31.7143 11.3333H20.2827C19.7589 11.3333 19.3333 11.7649 19.3333 12.2947V23.7054C19.3333 24.2351 19.7589 24.6667 20.2827 24.6667H31.7143C32.2381 24.6667 32.6667 24.2351 32.6667 23.7054V12.2947C32.6667 11.7649 32.2381 11.3333 31.7143 11.3333ZM23.3631 22.7619H21.3869V16.3988H23.3661V22.7619H23.3631ZM22.375 15.5298C21.7411 15.5298 21.2292 15.0149 21.2292 14.3839C21.2292 13.753 21.7411 13.2381 22.375 13.2381C23.006 13.2381 23.5208 13.753 23.5208 14.3839C23.5208 15.0179 23.0089 15.5298 22.375 15.5298ZM30.7708 22.7619H28.7947V19.6667C28.7947 18.9286 28.7798 17.9792 27.7679 17.9792C26.7381 17.9792 26.5804 18.7827 26.5804 19.6131V22.7619H24.6042V16.3988H26.5V17.2679H26.5268C26.7917 16.7679 27.4375 16.2411 28.3988 16.2411C30.3988 16.2411 30.7708 17.5595 30.7708 19.2738V22.7619Z" fill="white"/>
<path d="M43.1186 23H49.2685V21.6776H44.6548V12.8182H43.1186V23ZM50.9016 23H52.3881V15.3636H50.9016V23ZM51.6523 14.1854C52.1644 14.1854 52.592 13.7876 52.592 13.3004C52.592 12.8132 52.1644 12.4105 51.6523 12.4105C51.1353 12.4105 50.7127 12.8132 50.7127 13.3004C50.7127 13.7876 51.1353 14.1854 51.6523 14.1854ZM55.8745 18.4659C55.8745 17.2479 56.6202 16.5518 57.6543 16.5518C58.6635 16.5518 59.275 17.2131 59.275 18.3217V23H60.7615V18.1428C60.7615 16.2536 59.7225 15.2642 58.1614 15.2642C57.013 15.2642 56.2623 15.7962 55.9093 16.6065H55.8148V15.3636H54.388V23H55.8745V18.4659ZM62.7551 23H64.2417V20.2905L64.9824 19.5497L67.5776 23H69.4022L66.101 18.6399L69.1934 15.3636H67.4135L64.3709 18.5952H64.2417V12.8182H62.7551V23ZM73.5249 23.1541C75.1903 23.1541 76.3686 22.3338 76.7067 21.0909L75.2997 20.8374C75.0312 21.5582 74.3849 21.9261 73.5398 21.9261C72.267 21.9261 71.4119 21.1009 71.3722 19.6293H76.8011V19.1023C76.8011 16.343 75.1506 15.2642 73.4205 15.2642C71.2926 15.2642 69.8906 16.8849 69.8906 19.2315C69.8906 21.603 71.2727 23.1541 73.5249 23.1541ZM71.3771 18.5156C71.4368 17.4318 72.2223 16.4922 73.4304 16.4922C74.5838 16.4922 75.3395 17.3473 75.3445 18.5156H71.3771ZM81.3091 23.1491C82.7012 23.1491 83.248 22.299 83.5165 21.8118H83.6408V23H85.0925V12.8182H83.606V16.6016H83.5165C83.248 16.1293 82.7409 15.2642 81.3191 15.2642C79.4746 15.2642 78.1174 16.7209 78.1174 19.1967C78.1174 21.6676 79.4547 23.1491 81.3091 23.1491ZM81.6373 21.8814C80.3098 21.8814 79.6188 20.7131 79.6188 19.1818C79.6188 17.6655 80.2949 16.527 81.6373 16.527C82.9348 16.527 83.6309 17.5859 83.6309 19.1818C83.6309 20.7876 82.9199 21.8814 81.6373 21.8814ZM88.8697 12.8182H87.3335V23H88.8697V12.8182ZM92.4741 18.4659C92.4741 17.2479 93.2198 16.5518 94.2539 16.5518C95.2631 16.5518 95.8746 17.2131 95.8746 18.3217V23H97.3612V18.1428C97.3612 16.2536 96.3221 15.2642 94.761 15.2642C93.6126 15.2642 92.8619 15.7962 92.5089 16.6065H92.4144V15.3636H90.9876V23H92.4741V18.4659Z" fill="white"/>
</g>
<defs>
<filter id="filter0_d_0_233" x="0" y="0" width="119" height="38" filterUnits="userSpaceOnUse" color-interpolation-filters="sRGB">
<feFlood flood-opacity="0" result="BackgroundImageFix"/>
<feColorMatrix in="SourceAlpha" type="matrix" values="0 0 0 0 0 0 0 0 0 0 0 0 0 0 0 0 0 0 127 0" result="hardAlpha"/>
<feOffset dy="1"/>
<feGaussianBlur stdDeviation="1"/>
<feColorMatrix type="matrix" values="0 0 0 0 0 0 0 0 0 0 0 0 0 0 0 0 0 0 0.05 0"/>
<feBlend mode="normal" in2="BackgroundImageFix" result="effect1_dropShadow_0_233"/>
<feBlend mode="normal" in="SourceGraphic" in2="effect1_dropShadow_0_233" result="shape"/>
</filter>
</defs>
</svg>
